<svg id="Layer_1" data-name="Layer 1" xmlns="http://www.w3.org/2000/svg" viewBox="0 0 139.3 139.3"><defs><style>.cls-1{fill:#fff;}</style></defs><title>Vector Smart Object</title><polygon class="cls-1" points="69.65 78.84 11.31 137.18 2.12 127.99 60.46 69.65 2.12 11.31 11.31 2.12 69.65 60.46 127.99 2.12 137.18 11.31 78.84 69.65 137.18 127.99 127.99 137.18 69.65 78.84"/><path class="cls-1" d="M1283.84,534.09l7.07,7.07-58.34,58.34,58.34,58.34-7.07,7.07-58.34-58.34-58.34,58.34-7.07-7.07,58.34-58.34-58.34-58.34,7.07-7.07,58.34,58.34,58.34-58.34m0-4.24-2.13,2.12-56.21,56.22L1169.29,532l-2.13-2.12L1165,532,1158,539l-2.12,2.12,2.12,2.13,56.22,56.21L1158,655.72l-2.12,2.12L1158,660,1165,667l2.12,2.12,2.13-2.12,56.21-56.22L1281.71,667l2.13,2.12L1286,667,1293,660l2.12-2.12-2.12-2.12-56.22-56.22L1293,543.29l2.12-2.13L1293,539,1286,532l-2.12-2.12Z" transform="translate(-1155.85 -529.85)"/></svg>